<svg xmlns="http://www.w3.org/2000/svg" xmlns:xlink="http://www.w3.org/1999/xlink" viewBox="0 0 80 54" enable-background="new 0 0 80 54"><style type="text/css">.st0{fill:#200E29;} .st1{clip-path:url(#SVGID_2_);fill:#200E29;} .st2{fill:#939598;} .st3{fill:#E63C28;}</style><path class="st0" d="M3 49.3l1.2 2.7h-2.4l1.2-2.7zm.3-1l-2.4 5.5h-.7v.1h1.6v-.1h-.8l.7-1.7h2.4l.9 1.7h-.8v.1h2.7v-.1h-.9l-2.5-5.5h-.2zM18.4 48.3l-1.9 4.4-2-4.3h-1.8.7v5.4h-.7v.1h1.5v-.1h-.7v-5.3l2.6 5.5 2.3-5.6v5.4h-.7v.1h2.4v-.1h-.7v-5.4h.8v-.1z"/><defs><path id="SVGID_1_" d="M.2 48.2h79.8v5.8h-79.8z"/></defs><clipPath id="SVGID_2_"><use xlink:href="#SVGID_1_" overflow="visible"/></clipPath><path class="st1" d="M26.8 53.8h.9v-5.4h-.8v-.1h5.4v1.4h-.1c0-.4-.4-.9-.8-1.1-.3-.1-.5-.2-.9-.2h-1.9v2.6h.6c.8 0 1.3-.5 1.4-1.1h.1v2.4h-.1c0-.7-.6-1.2-1.5-1.2h-.5v2.7h1.6c1.2 0 2.2-.7 2.3-1.6h.1v1.7l-5.8-.1zM39.3 53.8h.7v-5.4h-.7v-.1h2.1c1.7 0 2.7.5 2.7 1.4 0 .7-.6 1-1.8 1.2.5.1.6.1 1 .3.5.3.7.5.7 1.1v.7999999999999999c0 .5.2.8.5.8.2 0 .3 0 .5-.1-.2.1-.4.1-.6.1-.5 0-1-.2-1.1-.5-.1-.1-.2-.4-.2-.7v-.8c0-.7-.3-1-1.2-1h-.9v2.8h.8v.1h-2.5zm2.6-2.9h.1c.7 0 1.1-.5 1.1-1.3s-.5-1.2-1.6-1.2h-.5v2.5h.9zM51.5 53.8h.8v-5.4h-1.6 2.6v5.4h.8v.1h-2.6zM65.8 53.5c-.2 0-.4 0-.7.2l-.3.1c-.3.1-.7.2-1.1.2-1.6 0-2.9-1.3-2.9-2.8 0-1.5 1.4-3 3-3 .3 0 .6.1 1 .3l.5.2c.2 0 .4-.1.5-.3v1.7h-.1c-.3-1.1-1.1-1.8-2-1.8-1.2 0-1.9 1.2-1.9 3 0 1.7.7 2.6 1.9 2.6.4 0 .9-.1 1.2-.3.3-.2.4-.5.4-1.1v-.6h-.8v-.1h2.6v.1h-.8v1.7c-.2-.1-.4-.1-.5-.1M73.7 51.2c0-1.6 1.5-3 3.1-3 1.7 0 3.1 1.4 3.1 3 0 1.5-1.5 2.7-3.2 2.7-1.6.1-3-1.2-3-2.7m5 1.2c.1-.4.2-.9.2-1.3 0-1.1-.3-2-.8-2.4-.3-.2-.8-.4-1.2-.4-.9 0-1.5.4-1.8 1.3-.2.5-.3 1-.3 1.5 0 1.1.3 2.1.8 2.4.3.2.7.3 1.2.3 1.1.1 1.7-.4 1.9-1.4"/><path class="st2" d="M21.7 0v41.8l5.9-6v-35.8zM58.4 0h-5.9v35.8l5.9 6z"/><path class="st3" d="M50.4 0h-20.7v33.6l10.3-10.3 10.4 10.4z"/></svg>