<svg xmlns="http://www.w3.org/2000/svg" viewBox="0 0 236 10" enable-background="new 0 0 236 10"><path fill="#231F20" d="M6.8 9.8l-1.3-3.7h-3.5l-1.4 3.7h-.6l3.6-9.8h.3l3.6 9.8h-.7zm-3.1-8.7l-1.6 4.5h3.2l-1.6-4.5zM13.9 10c-2.6 0-4.7-2.2-4.7-5 0-2.6 2-5 4.7-5 1.4 0 2.7.6 3.4 1.5l-.4.4c-.7-.8-1.7-1.3-3-1.3-2.4 0-4 2.1-4 4.4 0 2.5 1.7 4.5 4.1 4.5 1.5 0 2.3-.6 3.2-1.5l.4.4c-.7.7-1.9 1.6-3.7 1.6"/><path fill="#231F20" d="M26.5 9.8l-1.3-3.7h-3.6l-1.3 3.7h-.6l3.5-9.8h.3l3.6 9.8h-.6zm-3.1-8.7l-1.6 4.5h3.2l-1.6-4.5zM31.9 9.8h-2v-9.6h2c2.8 0 5 1.6 5 4.7s-2.2 4.9-5 4.9m.1-9.1h-1.5v8.6h1.5c2.4 0 4.2-1.7 4.2-4.4 0-2.6-1.8-4.2-4.2-4.2"/><path fill="#231F20" d="M39.8 9.8v-9.6h4.9v.5h-4.3v3.8h3.9v.5h-3.9v4.3h4.5v.5zM55.6 9.8v-8.8l-3.3 5.2h-.4l-3.3-5.1v8.7h-.6v-9.6h.7l3.4 5.3 3.3-5.3h.8v9.6zM63 5.2v4.6h-.6v-4.6l-3.5-5h.7l3.1 4.5 3.1-4.5h.7zM77.5 10c-2.7 0-4.8-2.2-4.8-5s2.1-5 4.8-5 4.7 2.2 4.7 5-2.1 5-4.7 5m0-9.4c-2.3 0-4.1 1.9-4.1 4.4 0 2.5 1.8 4.4 4.1 4.4s4.1-1.9 4.1-4.4c0-2.5-1.8-4.4-4.1-4.4"/><path fill="#231F20" d="M85.8.7v3.8h3.3v.6h-3.3v4.7h-.6v-9.6h4.3v.5zM101 10c-2.9 0-5.1-2-5.1-5 0-2.8 2.3-5 5.1-5 1.5 0 2.7.6 3.5 1.5l-.4.5c-1-1-1.8-1.4-3.2-1.4-2.5 0-4.4 1.9-4.4 4.5 0 2.7 1.9 4.4 4.4 4.4 1.9 0 3.5-1.2 3.9-2.9h-3.4v-.6h4.1c-.2 2.1-2.1 4-4.5 4"/><path fill="#231F20" d="M108.3 9.8v-9.6h.6v9.1h4.4v.5zM119.7 10c-2.7 0-4.8-2.2-4.8-5s2.1-5 4.8-5c2.7 0 4.7 2.2 4.7 5s-2.1 5-4.7 5m0-9.4c-2.3 0-4.1 1.9-4.1 4.4 0 2.5 1.8 4.4 4.1 4.4s4.1-1.9 4.1-4.4c0-2.5-1.8-4.4-4.1-4.4M130.1 9.8h-2.7v-9.6h2.2c1.8 0 3 .8 3 2.4 0 1.1-.7 1.9-1.7 2.2.9.1 2.5.7 2.5 2.4 0 1.9-1.5 2.6-3.3 2.6m-.5-9.1h-1.6v3.8h1.8c1.2 0 2.3-.6 2.3-2-.1-1.2-1-1.8-2.5-1.8m.4 4.3h-2v4.3h2.2c1.4 0 2.7-.6 2.7-2.1-.1-1.6-1.6-2.2-2.9-2.2"/><path fill="#231F20" d="M142.4 9.8l-1.4-3.7h-3.6l-1.3 3.7h-.6l3.6-9.8h.3l3.6 9.8h-.6zm-3.1-8.7l-1.6 4.5h3.2l-1.6-4.5zM145.8 9.8v-9.6h.6v9.1h4.4v.5zM157.4 9.8v-9.6h4.9v.5h-4.3v3.8h3.9v.5h-3.9v4.3h4.6v.5zM167.6 9.8h-2v-9.6h2c2.8 0 5 1.6 5 4.7s-2.2 4.9-5 4.9m.2-9.1h-1.5v8.6h1.5c2.4 0 4.2-1.7 4.2-4.4 0-2.6-1.9-4.2-4.2-4.2M178.9 10c-1.9 0-3.4-1.5-3.4-3.7v-6.1h.6v6.1c0 1.8 1.3 3.1 2.8 3.1 1.6 0 2.9-1.3 2.9-3.1v-6.1h.6v6.1c0 2.2-1.6 3.7-3.5 3.7M189.9 10c-2.6 0-4.7-2.2-4.7-5 0-2.6 2-5 4.7-5 1.4 0 2.7.6 3.4 1.5l-.3.4c-.7-.8-1.7-1.3-3-1.3-2.4 0-4 2.1-4 4.4 0 2.5 1.7 4.5 4.1 4.5 1.5 0 2.3-.6 3.2-1.5l.4.4c-.8.7-2 1.6-3.8 1.6"/><path fill="#231F20" d="M202.5 9.8l-1.3-3.7h-3.6l-1.3 3.7h-.6l3.6-9.8h.3l3.6 9.8h-.7zm-3.1-8.7l-1.6 4.5h3.2l-1.6-4.5zM207.2.7v9.1h-.6v-9.1h-2.4v-.5h5.5v.5zM212.4.2h.6v9.6h-.6zM220.8 10c-2.7 0-4.8-2.2-4.8-5s2.1-5 4.8-5c2.7 0 4.7 2.2 4.7 5s-2.1 5-4.7 5m0-9.4c-2.3 0-4.1 1.9-4.1 4.4 0 2.5 1.8 4.4 4.1 4.4s4.1-1.9 4.1-4.4c0-2.5-1.8-4.4-4.1-4.4"/><path fill="#231F20" d="M235.3 9.8l-6.2-8.8v8.899999999999999h-.6v-9.7h.7l6.2 8.8v-8.799999999999999h.6v9.6h-.7z"/></svg>