<svg xmlns="http://www.w3.org/2000/svg" viewBox="0 0 80 20" enable-background="new 0 0 80 20" width="80" height="20"><style type="text/css">.st0{display:none;fill:#929497;} .st1{fill:#FFFFFF;} .st2{display:none;fill:none;}</style><path class="st0" d="M33.8 35.3c4.9 0 8.9-4 8.9-8.9s-4-8.9-8.9-8.9-8.9 4-8.9 8.9 3.9 8.9 8.9 8.9"/><path class="st1" d="M34.5 7.2c-.3.1-.7.2-1.1.3.4-.2.7-.6.8-1-.3.2-.7.4-1.2.5-.3-.4-.8-.6-1.3-.6-1 0-1.8.8-1.8 1.8v.4c-1.5-.1-2.9-.8-3.8-1.9-.1.3-.2.6-.2.9 0 .6.3 1.2.8 1.5-.3 0-.6-.1-.8-.2 0 .9.6 1.6 1.5 1.8l-.5.1h-.3c.2.7.9 1.3 1.7 1.3-.6.5-1.4.8-2.3.8h-.4c.8.5 1.8.8 2.8.8 3.4 0 5.2-2.8 5.2-5.2v-.2l.9-1.1"/><path class="st0" d="M9.6 35.3c4.9 0 8.9-4 8.9-8.9s-4-8.9-8.9-8.9-8.9 4-8.9 8.9 4 8.9 8.9 8.9"/><path class="st1" d="M7.8 8.5h.9v-.9c0-.4 0-1 .3-1.4.3-.4.7-.7 1.4-.7 1.2 0 1.6.2 1.6.2l-.2 1.4s-.4-.1-.7-.1-.7.1-.7.5v1h1.5l-.1 1.3h-1.4v4.6h-1.6v-4.6h-1v-1.3z"/><path class="st0" d="M57.9 35.3c4.9 0 8.9-4 8.9-8.9s-4-8.9-8.9-8.9-8.9 4-8.9 8.9 4 8.9 8.9 8.9"/><path class="st1" d="M54.5 13.6h-2v-2.9c0-.8-.3-1.3-1-1.3-.5 0-.8.3-.9.7v3.5h-1.9v-5.5h1.9v.9c.1-.4.7-1 1.7-1 1.2 0 2.2.8 2.2 2.5v3.1zm-7.8-6.2c-.6 0-1-.4-1-1 0-.5.4-1 1.1-1 .6 0 1 .4 1 1-.1.6-.5 1-1.1 1m.9 6.2h-1.7v-5.5h1.7v5.5z"/><path class="st0" d="M82 35.3c4.9 0 8.9-4 8.9-8.9s-4-8.9-8.9-8.9-8.9 4-8.9 8.9 4 8.9 8.9 8.9"/><path class="st1" d="M70 5.5h-1.9c-.5 0-.8.1-1.1.2-.3.1-.6.3-.8.5s-.4.5-.5.8c-.1.3-.2.6-.2 1.1v3.8c0 .5.1.8.2 1.1.1.3.3.6.5.8s.5.4.8.5c.3.1.6.2 1.1.2h3.8c.5 0 .8-.1 1.1-.2.3-.1.6-.3.8-.5s.4-.5.5-.8c.1-.3.2-.6.2-1.1v-3.8c0-.5-.1-.8-.2-1.1-.1-.3-.3-.6-.5-.8s-.5-.4-.8-.5c-.3-.1-.6-.2-1.1-.2h-1.9m0 .8h1.8c.4 0 .7.1.8.2.2.1.4.2.5.3.2.2.3.3.3.5.1.2.1.4.2.8v3.6c0 .4-.1.7-.2.8-.1.2-.2.4-.3.5-.2.2-.3.3-.5.3-.2.1-.4.1-.8.2h-3.6c-.4 0-.7-.1-.8-.2-.2-.1-.4-.2-.5-.3-.2-.2-.3-.3-.3-.5-.1-.2-.1-.4-.2-.8v-3.6c0-.4.1-.7.2-.8.1-.2.2-.4.3-.5.2-.2.3-.3.5-.3.2-.1.4-.1.8-.2h1.8M70 11.5c-.8 0-1.5-.7-1.5-1.5s.7-1.5 1.5-1.5 1.5.7 1.5 1.5-.7 1.5-1.5 1.5m0-3.8c-1.3 0-2.3 1-2.3 2.3 0 1.3 1 2.3 2.3 2.3 1.3 0 2.3-1 2.3-2.3 0-1.3-1-2.3-2.3-2.3M73 7.6c0 .3-.2.5-.5.5s-.5-.2-.5-.5.2-.5.5-.5c.2-.1.5.2.5.5"/><path class="st2" d="M.8 17.5h90.1v17.8h-90.1z"/></svg>