<svg xmlns="http://www.w3.org/2000/svg" width="600" height="600" viewBox="0.445 295.14 600 600" enable-background="new 0.445 295.14 600 600"><path fill="#ddd" d="M274.803 402.101l-.532 138.68 8.842-8.316.209-131.767-8.519 1.403zm43.966-.852l-.051 131.358 8.316 8.842.124-138.838-8.389-1.362zm-32.525-.83l-.488 128.844 14.947-14.404 14.97 14.696.079-129.001-29.508-.135zm-116.593 167.058s10.276 23.206 27.842 23.889c0 .001 4.007-11.59-27.842-23.889m49.391-16.117s-27.649 19.352-23.045 30.515c.409.157 16.944-3.78 23.045-30.515m-50.148 41.162s11.91 23.837 29.726 25.086c-.408-.157 3.033-11.497-29.726-25.086m52.658-14.856s-29.153 15.956-25.272 27.777c0 .001 17.129-1.83 25.272-27.777m5.025 25.87s-28.328 10.175-31.963 25.663c0 0 12.314 3.348 31.963-25.663m-56.713 15.636s15.018 25.506 28.38 21.282c.408.158-.263-15.116-28.38-21.282M496.255 614.773l-2.765-.129-.315.817c-.158.408.093.974-.222 1.791-.065 1.383-.38 2.199-.38 2.199l2.765.129s.065-1.383.38-2.199l.222-1.791.315-.817M496.801 606.068l-3.174-.287-.101 5.122 2.765.129.51-4.964zm.138-8.861l-2.923.279.057 4.714 2.765.129.101-5.122zm-5.496 43.391l-3.016-.695s-.473 1.225-.38 2.199c-.473 1.225-.38 2.199-.38 2.199l3.016.695s.473-1.225.538-2.608c.158-.408.222-1.79.222-1.79m1.929-8.64l-3.016-.695s-.065 1.383-.38 2.199c-.473 1.225-.38 2.199-.38 2.199l3.016.695s.473-1.225.38-2.199c.315-.816.38-2.199.38-2.199m1.363-8.388l-3.016-.695s-.065 1.383-.38 2.199c-.065 1.383-.38 2.199-.38 2.199l3.016.695s.065-1.383.38-2.199c.315-.817.38-2.199.38-2.199M483.616 665.728l-2.45-.946-1.734 4.491 2.45.946 1.734-4.491zm3.154-8.167l-2.858-1.104-1.326 4.649 2.45.946 1.734-4.491zm2.745-8.324l-3.016-.695-1.168 4.241 2.858 1.104 1.326-4.65zm-16.585 40.517l-2.701-1.512-2.393 3.768 2.543 1.92 2.551-4.176zm3.971-7.851l-2.701-1.512-2.143 4.334 2.701 1.512 2.143-4.334zm3.562-8.009l-2.858-1.104-1.577 4.083 2.292 1.354 2.143-4.333zm-21.578 37.65l-2.135-1.763s-.881 1.067-1.197 1.884c-.881 1.067-1.605 1.726-1.605 1.726l2.135 1.763s.881-1.067 1.605-1.726c.316-.817 1.197-1.884 1.197-1.884m4.629-7.127l-2.701-1.512-.315.817c-.158.408-.724.659-1.039 1.476-.881 1.067-1.197 1.884-1.197 1.884l2.135 1.763s.881-1.067 1.197-1.884l1.039-1.476c.724-.66.882-1.068.881-1.068M468.301 696.881l-2.292-1.354-2.551 4.176 2.292 1.354 2.551-4.176zm-26.57 34.784l-1.977-2.171s-.881 1.067-1.605 1.726c-.881 1.067-1.605 1.726-1.605 1.726l1.977 2.171s.724-.659 1.605-1.726l1.605-1.726m5.854-6.655l-2.135-1.763s-.881 1.067-1.605 1.726c-.881 1.067-1.605 1.726-1.605 1.726l2.135 1.763s.881-1.067 1.605-1.726c.724-.658 1.605-1.726 1.605-1.726m5.855-6.654l-2.135-1.763s-.881 1.067-1.605 1.726c-.881 1.067-1.605 1.726-1.605 1.726l2.135 1.763s.881-1.067 1.605-1.726l1.605-1.726M422.35 749.048l-1.977-2.171-3.869 2.729 1.819 2.579 4.027-3.137zm6.764-5.364l-1.977-2.171-3.461 2.886 1.411 2.422 4.027-3.137zm6.513-5.931l-1.977-2.171s-.724.659-1.605 1.726l-1.29.91c-.158.408-.724.659-.724.659l1.977 2.171s.158-.408.724-.659c.158-.408.724-.659 1.29-.91.315-.816 1.605-1.726 1.605-1.726M400.583 764.103l-1.411-2.422-4.12 2.163 1.411 2.422 4.12-2.163zm7.423-4.641l-1.411-2.422-4.277 2.571 1.411 2.422 4.277-2.571zm7.172-5.207l-1.569-2.013-3.869 2.729 1.411 2.422 4.027-3.138zm-37.865 21.507l-1.253-2.83-2.264 1.003-2.264 1.003 1.253 2.83 2.264-1.003 2.264-1.003M385.237 772.253l-1.253-2.83-4.528 2.005 1.253 2.83 4.528-2.005zm7.673-4.075l-1.411-2.422-4.12 2.163 1.411 2.422 4.12-2.163zm-40.529 16.255l-.845-2.672s-1.132.501-2.106.594c-1.132.501-2.515.437-2.515.437l.845 2.672s.974-.093 2.515-.437c1.131-.501 2.106-.594 2.106-.594m8.425-2.376l-.845-2.672s-1.132.501-2.106.594c-1.132.501-2.106.594-2.106.594l.845 2.672s1.132-.501 2.106-.594c1.131-.502 2.106-.594 2.106-.594m8.174-2.943l-.845-2.672-2.264 1.003c-1.132.501-2.106.594-2.106.594l.845 2.672 2.264-1.003c.974-.093 2.106-.594 2.106-.594M326.919 789.616l-.687-3.081-4.463.622.279 2.923 4.871-.464zm8.518-1.403l-.687-3.081-4.621 1.031.279 2.923 5.029-.873zm8.676-1.811l-.687-3.081s-1.132.501-2.515.437c-.566.251-1.132.501-1.54.344l-.566.251.687 3.081s.408.158.566-.251l1.54-.344c.975-.093 2.515-.437 2.515-.437M300.519 791.152l.129-2.765-4.714.057-.129 2.765 4.714-.057zm8.862.137l-.121-3.331-4.872.465.279 2.923 4.714-.057zm8.769-.836l-.279-2.923-4.871.464.279 2.923 4.871-.464zm-43.743-.939l.129-2.765s-1.383-.065-2.199-.38c-1.383-.065-2.199-.38-2.199-.38l-.695 3.016s1.383.065 2.199.38l2.765.129m8.547.954l.129-2.765s-1.383-.065-2.357.028c-1.383-.065-2.199-.38-2.199-.38l-.129 2.765s1.383.065 2.199.38c1.382.065 2.357-.028 2.357-.028m8.704.546l.129-2.765s-.408-.158-.974.093c-.408-.158-.974.093-1.791-.222-1.383-.065-2.357.028-2.357.028l-.129 2.765s1.383.065 2.357-.028l1.791.222.974-.093M248.739 784.294l.695-3.016-4.241-1.169-1.104 2.858 4.65 1.327zm8.64 1.928l.538-2.608-4.649-1.326-.695 3.016 4.806.918zm8.231 1.771l.538-2.608-4.807-.918-.129 2.765 4.398.761zm-41.685-12.343l1.104-2.858-4.083-1.577-1.354 2.292 4.333 2.143zm8.166 3.153l.946-2.45-4.334-2.143-1.104 2.858 4.492 1.735zm8.167 3.154l1.104-2.858-4.492-1.734-1.104 2.858 4.492 1.734zm-39.478-18.06l1.512-2.701s-1.225-.473-1.884-1.197c-1.067-.881-1.884-1.197-1.884-1.197l-1.512 2.701s1.067.881 1.884 1.197c.817.316 1.884 1.197 1.884 1.197m7.285 4.221l1.512-2.701-.817-.315c-.408-.158-.817-.315-1.476-1.039-1.225-.473-1.884-1.197-1.884-1.197l-1.512 2.701s1.225.473 1.884 1.197c.408.158 1.225.473 1.476 1.039l.817.315m7.851 3.97l1.512-2.701-2.45-.946c-1.225-.473-1.884-1.197-1.884-1.197l-1.512 2.701s1.225.473 2.292 1.354l2.042.789m-37.019-23.21l1.763-2.135s-1.067-.881-1.726-1.605c-1.067-.881-1.726-1.605-1.726-1.605l-1.763 2.135s1.067.881 1.726 1.605c1.067.881 1.726 1.605 1.726 1.605m7.378 5.195l1.763-2.135s-1.067-.881-1.884-1.197c-1.067-.881-1.884-1.197-1.884-1.197l-1.763 2.135s1.067.881 1.726 1.605l2.042.789m6.97 5.037l1.512-2.701s-1.067-.881-1.884-1.197c-1.067-.881-1.884-1.197-1.884-1.197l-1.763 2.135s1.067.881 1.884 1.197c.91 1.29 2.135 1.763 2.135 1.763M159.908 731.222l1.763-2.135-3.452-3.21-2.171 1.977 3.86 3.368zm6.089 6.105l1.763-2.135-3.452-3.21-1.763 2.135 3.452 3.21zm6.088 6.105l2.329-2.385-4.018-2.959-1.763 2.135 3.452 3.209zm-29.403-32l2.579-1.819-3.137-4.027-2.171 1.977 2.729 3.869zm5.365 6.764l2.171-1.977-2.886-3.461-2.013 1.569 2.728 3.869zm5.773 6.922l2.171-1.977-3.295-3.618-2.013 1.569 3.137 4.026zm-25.061-35.954l2.422-1.411-1.003-2.264-1.003-2.264-2.422 1.411 1.003 2.264c.344 1.541 1.003 2.264 1.003 2.264m4.075 7.674l2.422-1.411s-.501-1.132-1.16-1.856c-.501-1.132-1.16-1.856-1.16-1.856l-2.422 1.411 1.003 2.264c.816.316 1.317 1.448 1.317 1.448M137.475 704.26l2.579-1.819-2.729-3.869-2.422 1.411 2.572 4.277zm-19.809-38.617l2.672-.845-1.003-2.264-1.003-2.264-2.515.437 1.003 2.264c.345 1.54.846 2.672.846 2.672m3.101 7.767l2.83-1.253-1.003-2.264-1.003-2.264-2.83 1.253 1.003 2.264 1.003 2.264m3.917 8.081l2.83-1.253-1.003-2.264-1.003-2.264-2.83 1.253 1.003 2.264 1.003 2.264M109.97 640.618l2.672-.845-1.031-4.621-2.923.279 1.282 5.187zm1.968 8.268l3.081-.687-1.439-4.779-2.672.845 1.03 4.621zm2.943 8.174l2.672-.845s-.501-1.132-.594-2.106c-.501-1.132-.594-2.106-.594-2.106l-2.672.845 1.003 2.264c-.316.816.185 1.948.185 1.948M105.511 614.498l2.923-.279-.465-4.872-2.923.279.465 4.872zm.837 8.768l3.081-.687-.622-4.463-2.923.279.464 4.871zm1.811 8.676l2.672-.845-.622-4.463-2.923.279.873 5.029zm-3.367-43.528l2.765.129s.065-1.383-.028-2.357c.065-1.383.538-2.608.538-2.608l-2.765-.129s-.065 1.383.028 2.357c-.474 1.225-.538 2.608-.538 2.608m-.138 8.861l2.765.129s.065-1.383-.028-2.357l-.028-2.357-2.608-.538s-.065 1.383.028 2.357l-.129 2.766m.02 8.454l2.923-.279s-.093-.974-.028-2.357c.065-1.383-.028-2.357-.028-2.357l-2.923.279s-.065 1.383.028 2.357l.028 2.357M107.404 562.208l2.608.538.918-4.807-2.608-.538-.918 4.807zm-1.52 8.797l3.174.287.509-4.965-2.765-.129-.918 4.807zm-.546 8.704l2.765.129.509-4.965-3.174-.287-.1 5.123zm8.102-42.853l2.858 1.104 1.577-4.083-2.858-1.104-1.577 4.083M111.103 545.338l2.608.538 1.326-4.649-2.608-.538-1.326 4.649zm-2.179 8.073l3.016.695.76-4.399-2.45-.946-1.326 4.65zm13.977-41.054l2.858 1.104.788-2.042c.473-1.225 1.197-1.884 1.197-1.884l-2.701-1.512s-.473 1.225-1.354 2.292l-.788 2.042m-3.562 8.009l2.858 1.104 1.577-4.083-2.858-1.104-1.577 4.083m-3.153 8.166l2.858 1.104 1.577-4.083-2.858-1.104-1.577 4.083M135.471 489.527l2.292 1.354 2.959-4.018-2.701-1.512-2.55 4.176zm-4.63 7.128l2.701 1.512s.473-1.225 1.197-1.884c.473-1.225 1.197-1.884 1.197-1.884l-2.701-1.512s-.473 1.225-1.197 1.884c-.473 1.225-1.197 1.884-1.197 1.884m-3.97 7.851l2.701 1.512s.473-1.225 1.197-1.884c.473-1.225 1.197-1.884 1.197-1.884l-2.701-1.512s-.473 1.225-1.354 2.292c-.567.251-1.04 1.476-1.04 1.476M151.149 468.368l2.135 1.763 3.21-3.452-2.385-2.329-2.96 4.018zm-5.446 6.812l2.135 1.763 2.959-4.018-2.135-1.763-2.959 4.018zm-5.446 6.812l2.543 1.92 2.959-4.018-2.543-1.92-2.959 4.018zm28.956-32.455l1.977 2.171 3.618-3.295-1.977-2.171-3.618 3.295zm-6.514 5.93l2.543 1.92 3.052-3.044-1.977-2.171-3.618 3.295zm-5.696 6.246l1.977 2.171 3.368-3.861-2.135-1.763-3.21 3.453zm33.067-28.521l1.819 2.579s.724-.659 2.013-1.569c1.132-.501 1.856-1.16 1.856-1.16l-1.411-2.422s-1.132.501-1.856 1.16c-1.698.753-2.421 1.412-2.421 1.412m-7.172 5.207l1.819 2.579s.724-.659 2.013-1.569c1.132-.501 2.013-1.569 2.013-1.569l-1.819-2.579s-1.132.501-2.013 1.569c-1.132.502-2.013 1.569-2.013 1.569m-7.172 5.207l1.977 2.171s.724-.659 2.013-1.569c.724-.659 2.013-1.569 2.013-1.569l-1.977-2.171s-.724.659-2.013 1.569c-.881 1.068-2.013 1.569-2.013 1.569m36.862-23.771l1.411 2.422 2.264-1.003 1.698-.752.566-.251-1.253-2.83-.566.251-1.698.752c-1.698.752-2.422 1.411-2.422 1.411m-7.673 4.075l1.411 2.422s1.132-.501 1.856-1.16c.566-.251 1.132-.501 1.29-.91l.566-.251-1.411-2.422s-.158.408-.566.251c-.566.251-1.132.501-1.29.91-1.132.501-1.856 1.16-1.856 1.16m-7.831 4.484l1.411 2.422s1.132-.501 1.856-1.16c1.132-.501 1.856-1.16 1.856-1.16l-1.411-2.422s-1.132.501-1.856 1.16c-.724.658-1.856 1.16-1.856 1.16M236.611 409.874l.845 2.672 4.37-1.597-.687-3.081-4.528 2.006zm-8.175 2.943l.845 2.672 4.528-2.005-.845-2.672-4.528 2.005zm-8.332 3.352l1.411 2.422 4.528-2.005-1.411-2.422-4.528 2.005zm41.782-13.426l.279 2.923 5.029-.873-.687-3.081-4.621 1.031zm-8.675 1.811l.687 3.081 4.779-1.439-.845-2.672-4.621 1.03zm-8.426 2.377l.845 2.672 4.621-1.031-.687-3.081-4.779 1.44zm42.907-7.83l.279 2.923s.974-.093 2.357-.028l1.54-.344c.408.158.974-.093.974-.093l-.279-2.923s-.408-.158-.974.093c-.408-.158-.974.093-1.54.344-.975.093-2.357.028-2.357.028m-8.769.837l.279 2.923s.974-.093 2.515-.437c.974-.093 2.357-.028 2.357-.028l-.279-2.923s-1.383-.065-2.357.028c-1.133.502-2.515.437-2.515.437m-8.518 1.403l.279 2.923s.408.158.566-.251c.408.158.974-.093 1.54-.344.974-.093 2.515-.437 2.515-.437l-.279-2.923s-.974.093-2.515.437l-1.54.344-.566.251M313.869 399.357l-.129 2.765 4.965.509.129-2.765-4.965-.509zm-8.704-.546l.279 2.923 4.556.352.287-3.174-5.122-.101zm-8.454.02l.279 2.923s1.383.065 2.357-.028c1.383.065 2.357-.028 2.357-.028l-.279-2.923s-1.383-.065-2.357.028c-1.383-.065-2.357.028-2.357.028m43.456 4.112l-.695 3.016.817.315c.408.158.817.315 1.791.222 1.225.473 2.199.38 2.199.38l.695-3.016s-1.225-.473-2.608-.538c-.408-.158-1.225-.473-1.791-.222l-.408-.157M331.528 401.015l-.695 3.016 4.807.918.695-3.016-4.807-.918zm-8.547-.955l-.695 3.016 4.965.509.129-2.765-4.399-.76zm42.223 9.736l-1.104 2.858 4.083 1.577 1.104-2.858-4.083-1.577m-8.324-2.745l-.695 3.016 4.083 1.577 1.104-2.858-4.492-1.735m-8.482-2.337l-.695 3.016 4.491 1.734.695-3.016s-1.225-.473-2.608-.538l-1.633-.631c.158-.407-.25-.565-.25-.565M389.388 420.073l-1.354 2.292 4.176 2.551 1.512-2.701-4.334-2.142zm-7.851-3.97l-1.104 2.858 4.334 2.143 1.104-2.858-4.334-2.143zm-8.167-3.153l-1.104 2.858 4.492 1.734 1.104-2.858-4.492-1.734M411.902 433.46l-1.763 2.135 4.018 2.959 1.92-2.543-4.175-2.551zm-7.128-4.63l-1.763 2.135 4.176 2.551 1.354-2.292-3.767-2.394zm-7.535-4.786l-1.512 2.701 4.176 2.551 1.512-2.701-4.176-2.551zm35.256 25.345l-1.763 2.135s.408.158.659.724l1.067.881c1.067.881 1.726 1.605 1.726 1.605l2.171-1.977s-1.067-.881-1.726-1.605c-.251-.566-1.067-.881-1.476-1.039-.407-.158-.658-.724-.658-.724M425.683 443.943l-1.763 2.135 3.861 3.368 1.92-2.543-4.018-2.96zm-6.812-5.446l-1.354 2.292 3.61 2.802 1.763-2.135-4.019-2.959zm31.982 30.18l-2.171 1.977s.659.724 1.569 2.013c.659.724 1.569 2.013 1.569 2.013l2.171-1.977s-.659-.724-1.569-2.013l-1.569-2.013m-5.93-6.513l-2.171 1.977s1.067.881 1.726 1.605 1.569 2.013 1.569 2.013l2.171-1.977s-.659-.724-1.569-2.013c-1.067-.881-1.726-1.605-1.726-1.605m-5.931-6.513l-2.171 1.977s1.067.881 1.726 1.605 1.726 1.605 1.726 1.605l2.171-1.977s-1.067-.881-1.726-1.605c-1.067-.881-1.726-1.605-1.726-1.605M466.224 489.627l-2.422 1.411 2.571 4.277 2.422-1.411-2.571-4.277zm-4.641-7.422l-2.579 1.819s.501 1.132 1.569 2.013c.251.566.501 1.132.91 1.29l.251.566 2.422-1.411s-.408-.158-.251-.566l-.91-1.29c-.911-1.289-1.412-2.421-1.412-2.421m-5.365-6.764l-2.171 1.977s.659.724 1.569 2.013l.91 1.29.251.566 2.579-1.819s-.408-.158-.251-.566c-.659-.724-.91-1.29-1.318-1.447-.91-1.29-1.569-2.014-1.569-2.014M478.857 512.805l-2.672.845 2.005 4.528 2.83-1.253-2.163-4.12zm-3.917-8.082l-2.422 1.411 2.163 4.12 2.422-1.411-2.163-4.12zm-4.075-7.673l-2.422 1.411 2.163 4.12 2.83-1.253-2.571-4.278zm17.387 40.028l-2.672.845 1.031 4.621 3.081-.687-1.44-4.779zm-2.943-8.175l-2.672.845 1.597 4.37 2.672-.845-1.597-4.37zm-2.943-8.174l-2.672.845 2.005 4.528 2.264-1.003-1.597-4.37zm12.042 41.718l-2.923.279s.093.974.437 2.515c.093.974.437 2.515.437 2.515l2.923-.279s-.093-.974-.437-2.515l-.437-2.515m-1.811-8.676l-3.081.687s.501 1.132.437 2.515c.093.974.437 2.515.437 2.515l2.923-.279s-.093-.974-.437-2.515c.065-1.383-.279-2.923-.279-2.923m-1.968-8.268l-2.672.845s.501 1.132.594 2.106c.501 1.132.437 2.515.437 2.515l3.081-.687s-.501-1.132-.437-2.515l-1.003-2.264M496.918 588.753l-2.765-.129-.101 5.122 2.923-.279-.057-4.714zm-.428-8.611l-2.765-.129.056 4.714 2.765.129-.056-4.714zm-.837-8.769l-2.923.279s.093.974.437 2.515l.344 1.54c-.158.408.093.974.093.974l2.923-.279s.158-.408-.093-.974c.158-.408-.093-.974-.344-1.54-.344-1.541-.437-2.515-.437-2.515M596.496 595.769l-1.949.186c-.329 81.046-33.267 154.191-86.197 207.418-53.338 53.069-126.509 85.81-207.555 85.481s-154.191-33.267-207.418-86.197c-53.884-53.653-86.467-127.232-86.138-208.278.329-81.046 33.267-154.191 86.197-207.418 53.338-53.069 126.917-85.652 207.963-85.323s154.191 33.267 207.418 86.197c53.069 53.338 85.81 126.509 85.481 207.555l2.198.379 1.949-.186c.064-164.198-132.812-297.621-296.852-298.093-164.607-.222-298.03 132.654-298.094 296.852-.064 164.198 132.812 297.621 296.853 298.094 164.198.064 297.621-132.812 298.093-296.853l-1.949.186zm-44.119 21.907c-.101 5.122-3.877 8.825-8.999 8.724-5.122-.101-8.825-3.877-8.724-8.999.101-5.122 3.877-8.825 8.999-8.724 4.714-.057 8.825 3.877 8.724 8.999m-488.948-1.13c-.101 5.122-3.877 8.825-8.999 8.724s-8.825-3.877-8.724-8.999c.101-5.122 3.877-8.825 8.999-8.724 4.714-.056 8.826 3.877 8.724 8.999m17.491-59.873c-.89 7.164-6.206 11.211-13.778 10.163l-19.134-2.697.76-4.399 19.134 2.697c5.781.825 8.991-2.628 9.594-6.618.602-3.99-.994-8.361-7.184-9.343l-19.134-2.697.602-3.99 19.134 2.697c6.849 1.707 11.146 7.589 10.006 14.187M90.72 513.068l-26.472 9.015c-.408-.158-.974.093-.974.093l.817.315 21.455 6.408-1.168 4.241-29.779-9.153.853-3.424 25.906-8.764c.566-.251.974-.093.974-.093l-.817-.315-21.047-6.251 1.168-4.241 29.779 9.154-.695 3.015zm5.361-13.883l-28.202-13.237 1.985-3.926 24.685 11.409 5.074-10.709 3.517 1.827-7.059 14.636zm19.026-33.474c-4.787 7.536-14.595 9.848-22.381 4.495-7.536-4.787-9.848-14.595-4.653-21.973 5.51-8.195 14.595-9.848 22.381-4.495 7.128 4.629 9.44 14.437 4.653 21.973m-23.674-15.242c-3.59 5.652-1.965 12.379 3.687 15.969 6.06 3.748 12.787 2.123 16.22-3.121 3.432-5.243 2.373-12.221-4.095-16.127-5.494-3.998-12.222-2.373-15.812 3.279m48.417-16.025c-4.973 5.587-14.874 6.925-22.187.347-6.497-6.262-7.426-16.006-1.164-22.502 3.934-4.111 7.58-5.049 11.32-5.013l-.036 3.74c-3.331.121-6.004.966-8.49 3.76-4.091 4.52-4.007 11.591 1.172 16.406 5.838 5.539 13.131 3.663 16.341.211 2.171-1.977 3.59-5.652 3.218-9.549l3.897-.372c.938 3.646-.546 8.703-4.071 12.972M169.678 407.019l-18.661-3.922.028 2.357 7.843 10.067-3.303 2.478-19.639-24.475 3.303-2.478 8.251 10.224 1.658-17.659 4.184-3.545-1.723 19.042 22.652 4.524-4.593 3.387zm-3.998-34.75l3.72-2.308 16.377 26.411-3.72 2.308-16.377-26.411zm49.537 9.168l-24.305-13.609-.817-.315s.251.566.659.724l9.431 20.534-3.962 1.755-13.349-28.615 3.396-1.504 23.897 13.451c.408.158.659.724.659.724s-.251-.566-.659-.724l-9.181-19.968 3.962-1.754 13.098 28.049-2.829 1.252zm28.013-9.359c-7.859 2.126-17.093-1.909-19.563-11.308s2.632-17.752 10.9-19.721c4.779-1.439 8.769-.837 12.286.991l-1.419 3.675c-3.267-1.261-5.874-1.799-9.521-.861-6.319 1.783-9.501 7.592-7.467 14.477 1.783 6.319 8.251 10.224 14.162 8.284 4.213-1.189 7.014-4.799 7.051-8.538l-9.149 3.036-.938-3.647 13.612-3.658c2.126 7.859-2.661 15.395-9.954 17.27M286.298 337.097l1.629 27.374-3.897.372-2.195-27.123-6.254.4-.214-4.306 17.222-.857.372 3.897-6.663.243zm37.893 28.24l1.055-13.669-15.051-1.12-1.055 13.669-4.148-.194 2.305-31.485 4.148.194-1.213 14.077 15.051 1.12 1.213-14.077 3.99.602-2.147 31.077-4.148-.194zm16.118 2.001l6.138-30.474 17.436 3.449-1.168 4.241-12.88-3.097-1.993 10.022 12.63 2.531-1.011 3.833-12.63-2.531-1.678 9.205 13.446 2.846-.602 3.99-17.688-4.015zm54.016 3.498l-5.308-2.05-5.232 11.118-4.083-1.577 12.012-28.675 8.417 3.72c5.716 2.207 7.815 7.71 5.765 13.018-1.577 4.083-7.237 6.589-11.571 4.446m4.136-14.356l-4.083-1.577-4.35 10.05 4.491 1.734c3.267 1.261 6.347.574 7.609-2.692 1.669-3.108.008-6.095-3.667-7.515m20.904 41.856c-7.536-4.787-10.006-14.186-5.061-22.13 4.787-7.536 14.186-10.006 21.722-5.219 8.352 5.102 9.848 14.595 5.061 22.13-4.378 7.694-14.186 10.006-21.722 5.219m14.834-23.832c-5.652-3.59-12.379-1.965-16.127 4.095-3.748 6.06-1.714 12.945 3.529 16.377s12.221 2.373 16.127-4.095c3.748-6.06 2.123-12.787-3.529-16.377M464.055 396.825l-17.469 20.937-3.61-2.802 17.878-20.78-4.928-4.249 2.486-2.794 13.058 11.142-2.486 2.794-4.929-4.248zm-4.978 32.33l22.749-21.244 11.861 13.026-2.895 2.636-8.975-9.565-7.237 6.59 8.566 9.408-2.895 2.636-8.566-9.408-6.671 6.339 9.225 10.131-2.895 2.636-12.267-13.185zm30.87 39.135l9.683-26.29.315-.817s-.566.251-.724.659l-18.464 12.577-2.32-3.711 25.636-17.784 2.07 3.145-9.117 26.039-.315.817s.566-.251.724-.659l18.464-12.577 2.32 3.711-25.636 17.784-2.636-2.894zm36.442 8.911l-24.403 12.16-2.32-3.711 24.403-12.16-2.506-5.66 3.554-1.912 7.584 15.597-3.554 1.912-2.758-6.226zm-17.824 28.026l29.001-11.164 1.571 4.084-29.001 11.163-1.571-4.083zm10.606 34.407l8.87-5.959-2.47-9.4-10.746-1.334-1.188-4.213 33.211 3.91.845 2.672-27.241 19.51-1.281-5.186zm20.319-13.737c.158-.408.724-.659.724-.659s-.408-.158-.724.659l-9.614-1.836 1.625 6.727 7.989-4.891zm-17.793 27.85l31.336-3.383.372 3.897-27.03 3.169 1.524 11.849-3.897.372-2.305-15.904zm-458.718 140.514c-2.785-8.583 1.5-17.251 10.241-20.444 8.583-2.785 17.408 1.092 20.194 9.675 3.036 9.149-1.658 17.659-10.241 20.444-8.333 3.351-17.251-1.5-20.194-9.675m26.472-9.015c-2.191-6.477-8.158-9.25-14.635-7.059s-9.565 8.975-7.625 14.885c1.94 5.911 8.158 9.25 15.201 6.808 6.069-2.348 9.25-8.157 7.059-14.634M100.007 711.375l-8.805 4.576 4.827 9.371-3.554 1.912-4.827-9.371-11.793 6.238-1.755-3.962 27.548-14.23 6.99 13.491-3.554 1.912-5.077-9.937zm5.169 58.301l5.826-9.011-5.866-7.896-10.123 3.129-2.886-3.461 32.318-9.573 1.569 2.013-17.542 28.416-3.296-3.617zm13.164-20.723c.158-.408.724-.659.724-.659s-.566.251-.724.659l-9.4 2.47 4.455 5.474 4.945-7.944zm16.712 51.498l15.893-16.854c.158-.408.724-.659.724-.659s-.566.251-.974.093l-16.22 3.121-1.476-1.039 1.593-16.276.315-.817s-.158.408-.881 1.067l-15.327 16.603-3.044-3.052 21.431-22.692 2.794 2.486-1.723 19.042 18.734-3.557 2.794 2.486-21.431 22.692-3.202-2.644zm14.032 11.049l17.571-26.059 14.348 10.233-2.078 2.951-10.738-7.431-6.076 8.445 10.895 7.023-2.236 3.359-10.895-7.023-5.195 7.378 11.554 7.746-2.236 3.359-14.914-9.981zm40.035 23.906l-4.532-18.641-6.837 12.844-3.926-1.985 14.462-27.729 8.918 4.852c5.15 2.458 6.683 8.211 4.54 12.545s-7.896 5.866-11.821 3.881l4.188 17.101-4.992-2.868zm5.851-27.301l-4.334-2.143-5.009 9.327 4.334 2.143c3.517 1.827 6.347.574 8.017-2.535 1.039-1.476.509-4.965-3.008-6.792M202.978 841.569l11.569-28.841 4.063 1.63-11.569 28.841-4.063-1.63zm29.423 10.55c-7.257-1.864-12.965-10.168-10.313-19.466 2.495-8.89 10.483-13.782 19.373-11.287 5.466 1.642 8.259 4.128 9.605 7.932l-3.962 1.754c-1.253-2.83-3.796-4.75-7.22-5.603-5.874-1.799-11.849 1.524-13.964 8.215-2.022 7.665 2.842 13.297 7.083 14.465 3.016.695 6.347.574 10.059-1.746l2.478 3.303c-2.894 2.636-8.081 3.917-13.139 2.433M275.004 859.656l-2.563-10.374-9.771-1.427-5.009 9.327-4.399-.76 16.067-29.455 2.45.946 8.032 32.662-4.807-.919zm-5.405-23.671c.158-.408-.093-.974-.093-.974l-.315.817-4.128 8.259 6.755.732-2.219-8.834zm42.643 24.444l-16.688-22.397c-.408-.158-.659-.724-.659-.724s.251.566.093.974l.19 22.595-4.306.214-.618-31.206 3.74.036 16.438 21.831c.251.566.659.724.659.724s-.251-.566-.093-.974l-.347-22.187 4.306-.214.618 31.206-3.333.122zm27.439-3.011l-5.647-30.333 16.786-3.371.938 3.647-12.731 2.591 1.746 10.059 12.731-2.591.78 4.055-12.573 2.183 1.653 9.084 13.705-2.684.78 4.055-18.168 3.305zm37.125-8.655l-7.043 2.442-9.702-29.553 7.609-2.692c10.123-3.129 18.225 1.407 20.76 9.424 1.968 8.267-1.909 17.092-11.624 20.379m-8.765-25.906l-3.238 1.096 7.26 22.51 2.672-.845c8.583-2.785 10.447-10.042 8.757-15.387-1.782-6.319-8-9.658-15.451-7.374m46.872 11.062c-6.384 3.165-12.824 1.617-16.648-5.49l-8.744-17.453 3.962-1.754 8.744 17.453c2.664 5.252 7.22 5.603 10.774 3.691 3.554-1.912 5.947-5.68 3.283-10.932l-8.744-17.453 3.554-1.912 8.744 17.453c3.574 6.54 1.051 13.074-4.925 16.397m33.811-20.727c-6.291 4.14-15.969 3.687-21.835-4.209-5.207-7.172-4.188-17.101 3.392-22.15 4.593-3.388 8.49-3.76 12.322-2.749l-1.168 4.241c-3.016-.695-6.097-.008-8.676 1.811-5.159 3.638-6.299 10.236-2.002 16.119 4.548 6.448 12.185 6.113 16.054 3.384 2.579-1.819 4.657-4.77 4.852-8.918l3.99.602c-.194 4.147-2.494 8.889-6.929 11.869M481.224 784.921l-9.893-4.759-7.394 6.998 4.103 10.03-3.052 3.044-12.969-30.814 2.171-1.977 30.086 14.433-3.052 3.045zm-21.669-10.714l-.817-.315c.001 0-.157.408.817.315l3.194 8.741 5.066-4.613-8.26-4.128zm14.769-22.449l20.937 17.469-2.644 3.202-20.937-17.469-4.249 4.928-3.202-2.644 11.3-13.466 3.202 2.644-4.407 5.336zm5.887-14.346l2.522-3.578 25.401 17.903-2.522 3.578-25.401-17.903zm42.853-8.592c-4.379 7.693-13.527 10.729-21.787 6.601-8.102-4.536-10.729-13.527-6.759-21.378 4.694-8.51 14.093-10.98 21.787-6.601 8.26 4.128 10.73 13.527 6.759 21.378m-24.871-13.358c-3.182 5.809-.991 12.286 5.227 15.626 6.218 3.339 13.26.898 16.284-4.503s1.399-12.128-5.227-15.625c-6.217-3.34-13.102-1.307-16.284 4.502M541.699 682.996l-26.565 8.041c-.408-.158-.974.093-.974.093l.817.315 21.14 7.225-1.577 4.083-29.464-9.97 1.261-3.267 26.157-8.198c.566-.251.974-.093.974-.093l-.817-.315-20.731-7.067 1.577-4.083 29.464 9.97-1.262 3.266zm-280.51 27.748l9.428-.113 30.702-69.786 1.791.222 31.645 69.933 12.193.016.093.974-34.631-.235-.093-.974 9.836.045-9.524-21.508-30.891-.199-9.74 21.576 9.428-.113.093.974-20.647.004.317-.816zm50.939-22.558l-15.447-34.117-15.036 34.076 30.483.041zm27.671-105.678c1.447-1.318 2.486-2.794 4.5-4.362l43.047 51.344c4.435-2.979 9.056-4.01 14.392.396l1.512-2.701 25.216-32.491 12.246-15.916c1.197-1.884 2.329-2.385 4.055-.78l2.292 1.354c1.225.473 1.318 1.447.437 2.515l-26.505 33.401-11.931 15.1c-.881 1.067-1.92 2.543-2.551 4.176-1.512 2.701-4.091 4.52-7.014 4.799-4.055.78-8.927 1.245-12.694-1.148-1.633-.631-2.385-2.329-3.452-3.21-2.979-4.435-5.708-8.304-9.003-11.922l-24.001-28.975-10.546-11.58m9.465-3.853c4.12-2.163 2.579-1.819 5.215 1.076 9.977 11.829 26.601 35.609 26.443 36.018-9.848-14.595-19.231-24.318-31.658-37.094m37.262 29.873c-6.044-15.941-10.183-22.232-19.215-36.511 3.052-3.044 2.171-1.977 4.742 2.3 4.419 9.214 8.494 16.887 12.346 26.351 1.755 3.963 2.284 7.452 2.127 7.86m-25.534-34.728c3.461-2.887 2.737-2.228 4.649 1.326 7.463 12.266 18.463 34.813 18.147 35.63-7.268-16.414-12.224-23.02-22.796-36.956m20.124 37.801c-8.465-14.53-14.331-22.426-25.784-35.294 1.132-.501 2.013-1.569 2.579-1.819s1.225.473 1.476 1.039c5.393 9.12 22.138 36.231 21.729 36.074m37.484-134.734s-3.776 3.703-10.038 10.2c-3.21 3.452-6.986 7.156-11.235 12.084l-6.986 7.156c-2.329 2.385-5.223 5.021-7.71 7.815-22.09 21.968-51.733 51.342-80.967 80.874-29.642 29.374-58.876 58.906-80.967 80.874-2.895 2.636-5.381 5.429-7.71 7.815l-7.394 6.998c-4.5 4.362-8.684 7.908-11.894 11.36-6.671 6.339-10.447 10.042-10.447 10.042s3.776-3.703 10.038-10.2c3.21-3.453 6.986-7.156 11.235-12.084l6.986-7.156c2.329-2.385 5.223-5.021 7.71-7.815 22.09-21.968 51.733-51.342 80.967-80.874 29.642-29.374 58.876-58.906 80.967-80.874 2.895-2.636 5.381-5.429 7.71-7.815l7.394-6.998c4.5-4.362 8.684-7.908 11.894-11.36 6.671-6.339 10.447-10.042 10.447-10.042m-.349 235.408s-3.703-3.776-10.2-10.038c-3.452-3.21-7.156-6.986-12.084-11.235l-7.156-6.986c-2.385-2.329-5.021-5.223-7.815-7.71-21.968-22.09-51.342-51.733-80.874-80.967-29.374-29.642-58.906-58.876-80.874-80.967-2.636-2.895-5.429-5.381-7.815-7.71l-6.998-7.394c-4.362-4.5-7.908-8.684-11.36-11.894-6.339-6.671-10.042-10.447-10.042-10.447s3.703 3.776 10.2 10.038c3.452 3.21 7.156 6.986 12.084 11.235l7.156 6.986c2.385 2.329 5.021 5.223 7.815 7.71 21.968 22.09 51.342 51.733 80.874 80.967 29.374 29.642 58.906 58.876 80.874 80.967 2.636 2.895 5.429 5.381 7.815 7.71l6.998 7.394c4.362 4.5 7.908 8.684 11.36 11.894 6.339 6.671 10.042 10.447 10.042 10.447M417.245 479.159l-26.857 37.957-24.152 12.726 51.009-50.683zm-232.893-.785l26.471 38.375 24.713 13.766-51.184-52.141zm253.594 100.275c-4.176-2.551-2.543-1.92-5.187 1.281-10.261 11.991-27.294 35.443-27.043 36.009 9.825-14.505 19.297-24.454 32.23-37.29m-38.253 29.803c6.149-15.924 10.463-22.235 19.721-36.49-3.044-3.052-2.543-1.92-4.686 2.413-4.601 9.484-8.822 16.769-12.448 26.161-1.985 3.925-2.995 7.758-2.587 7.916m26.004-34.533c-3.61-2.802-2.385-2.329-4.621 1.031-7.496 12.12-18.933 34.448-18.84 35.423 7.69-16.269 12.82-22.264 23.461-36.454m-20.352 38.123c8.599-14.978 14.769-22.449 26.728-35.192-1.067-.881-1.726-1.605-2.701-1.512-.817-.315-1.132.501-1.447 1.318-5.919 8.037-22.989 35.228-22.58 35.386"/></svg>