<svg xmlns="http://www.w3.org/2000/svg" viewBox="0 0 136 136" enable-background="new 0 0 136 136"><style type="text/css">.st0{fill:#DDDDDD;} .st1{fill-rule:evenodd;clip-rule:evenodd;fill:#DDDDDD;}</style><path class="st0" d="M46.6 29l11.3 29.6 1.2-2.5-10.8-28.1zM55.9 25.2l10.8 28 2.5 1.2-11.4-29.6zM48.9 27.7l10.5 27.5 2-4.3 4.4 1.9-10.6-27.5zM37.8 72.9s4.1 4.1 7.9 2.8c0 0-.1-2.8-7.9-2.8M47 65.4s-4.3 6.4-2.4 8.4c.1 0 3.3-2.2 2.4-8.4M39.7 78.3s4.5 4.1 8.4 2.9c-.1 0-.3-2.7-8.4-2.9M49.7 70.8s-4.9 5.8-3.1 8c0 0 3.5-1.8 3.1-8M52.9 75.9s-5.2 4.5-4.7 8.1c0 0 2.9-.3 4.7-8.1M42.1 83.9s5.3 4.2 7.8 2.2c.1 0-1.3-3.2-7.8-2.2"/><path class="st1" d="M111.3 56.1l-.6.2v.2c0 .1.1.2.1.4.1.3.1.5.1.5l.6-.2s-.1-.3-.1-.5l-.1-.4v-.2"/><path class="st1" d="M110.7 54.2l-.7.2.4 1.1.6-.2zM110 52.3l-.6.3.4 1 .6-.2zM112.4 62l-.7.1s0 .3.1.5c0 .3.1.5.1.5l.7-.1s0-.3-.1-.6c0-.1-.1-.4-.1-.4M112.1 60l-.7.1s.1.3.1.5c0 .3.1.5.1.5l.7-.1s0-.3-.1-.5c0-.2-.1-.5-.1-.5M111.7 58.1l-.7.1s.1.3.1.5c.1.3.1.5.1.5l.7-.1s-.1-.3-.1-.5-.1-.5-.1-.5"/><path class="st1" d="M112.8 68h-.6v1.1h.6zM112.8 66h-.7l.1 1.1h.6zM112.7 64l-.7.1.1 1h.7zM112.5 74l-.7-.1-.2 1 .7.2zM112.7 72l-.7-.1-.1 1.1.7.1zM112.8 70h-.7v1l.6.1zM111.3 79.8l-.6-.2s-.1.3-.1.5c-.1.3-.2.5-.2.5l.6.2s.1-.3.2-.5c0-.2.1-.5.1-.5M111.7 77.9l-.7-.1v.2c0 .1-.1.2-.1.4-.1.3-.1.5-.1.5l.6.2s.1-.3.1-.5l.1-.4c.1-.2.1-.3.1-.3"/><path class="st1" d="M112.1 75.9l-.6-.1-.2 1.1.6.1zM109.3 85.5l-.6-.3s-.1.3-.2.5c-.1.3-.2.5-.2.5l.6.3s.1-.2.2-.5.2-.5.2-.5M110 83.6l-.6-.2s-.1.3-.2.5c-.1.3-.2.5-.2.5l.6.2s.1-.3.2-.5.2-.5.2-.5M110.7 81.7l-.6-.2s-.1.3-.2.5c-.1.3-.2.5-.2.5l.6.2s.1-.3.2-.5.2-.5.2-.5"/><path class="st1" d="M106.6 90.8l-.6-.3-.6.9.6.4zM107.6 89.1l-.6-.3-.5.9.5.4zM108.5 87.3l-.6-.3s-.1.2-.2.5l-.2.3c0 .1-.1.2-.1.2l.6.3s0-.1.1-.2c0-.1.1-.2.2-.3 0-.2.2-.5.2-.5"/><path class="st1" d="M103.2 95.8l-.5-.4-.7.8.5.4zM104.4 94.2l-.5-.4-.7.9.5.4zM105.5 92.5l-.5-.3-.6.9.5.4zM99.2 100.2l-.5-.5-.4.4-.4.4.5.5.4-.4.4-.4"/><path class="st1" d="M100.6 98.8l-.5-.5-.8.8.5.5zM101.9 97.3l-.5-.4-.7.8.5.4zM94.6 104.1l-.4-.5s-.2.2-.4.3c-.2.2-.5.3-.5.3l.4.5s.2-.1.5-.3c.2-.2.4-.3.4-.3M96.2 102.9l-.4-.5s-.2.2-.4.3c-.2.2-.4.3-.4.3l.4.5s.2-.2.4-.3c.2-.2.4-.3.4-.3M97.7 101.6l-.4-.5-.4.4c-.2.2-.4.3-.4.3l.4.5.4-.4c.2-.1.4-.3.4-.3"/><path class="st1" d="M89.6 107.3l-.4-.6-.9.5.3.6zM91.3 106.3l-.4-.6-.9.6.3.6zM93 105.2l-.4-.6s-.2.2-.5.3c-.1.1-.2.2-.3.2l-.1.1.4.6s.1 0 .1-.1l.3-.2c.2-.1.5-.3.5-.3"/><path class="st1" d="M84.1 109.8l-.2-.6-1 .4.2.6zM86 109.1l-.3-.7-1 .5.3.6zM87.8 108.2l-.3-.6-1 .5.3.6zM78.4 111.6l-.2-.6s-.3.1-.5.1c-.3.1-.5.1-.5.1l.1.7s.3-.1.5-.1l.6-.2M80.3 111.1l-.2-.6s-.3.1-.5.2c-.3.1-.5.1-.5.1l.2.6s.3-.1.5-.1c.3-.1.5-.2.5-.2M82.2 110.5l-.2-.6s-.1 0-.2.1c-.1 0-.2.1-.4.1-.3.1-.5.2-.5.2l.2.6s.3-.1.5-.2l.4-.1.2-.1"/><path class="st1" d="M72.5 112.6l-.1-.7-1 .1v.7zM74.5 112.3l-.1-.6-1.1.1.1.7zM76.4 112l-.1-.6-1.1.2.2.6zM66.5 112.8v-.7h-1l-.1.6zM68.5 112.8v-.6l-1.1-.1v.7zM70.5 112.8v-.7h-1.1v.7zM60.6 112.2l.1-.7s-.3 0-.5-.1c-.3-.1-.5-.1-.5-.1l-.1.7s.3.1.5.1.5.1.5.1M62.5 112.5l.1-.7h-.2c-.1 0-.2 0-.4-.1-.3 0-.5-.1-.5-.1l-.1.7s.3 0 .5.1c.1 0 .3 0 .4.1h.2M64.5 112.7l.1-.7h-.6000000000000001c-.3 0-.5-.1-.5-.1l-.1.7s.3 0 .6.1h.5M54.7 110.8l.2-.6s-.3-.1-.5-.2c-.3-.1-.5-.2-.5-.2l-.2.6s.3.1.5.2c.3.1.5.2.5.2M56.7 111.3l.2-.6s-.3-.1-.5-.1c-.3-.1-.5-.1-.5-.1l-.2.6s.3.1.5.2h.5M58.6 111.8l.1-.7s-.3-.1-.5-.1c-.3-.1-.5-.1-.5-.1l-.2.6s.3.1.5.1c.3.2.6.2.6.2"/><path class="st1" d="M49.2 108.6l.2-.6-1-.4-.3.6zM51 109.4l.2-.6-1-.4-.2.6zM52.8 110.2l.3-.7-1.1-.3-.2.6zM43.9 105.8l.4-.6-1-.6-.3.6zM45.6 106.8l.3-.6-.9-.5-.3.5zM47.4 107.8l.3-.6-1-.5-.3.5zM39.1 102.2l.4-.5-.4-.4-.4-.4-.4.5.4.4c.2.3.4.4.4.4M40.6 103.5l.4-.5s-.2-.2-.4-.3c-.2-.2-.4-.3-.4-.3l-.4.5.4.4c.2 0 .4.2.4.2"/><path class="st1" d="M42.2 104.7l.4-.6-.9-.6-.4.5zM34.8 98.1l.5-.4-.4-.4-.4-.4-.5.3.4.4c.2.3.4.5.4.5M36.1 99.5l.5-.5-.4-.4-.4-.4-.5.5.4.4.4.4M37.6 100.9l.5-.5-.4-.4-.4-.4-.5.5.4.4.4.4"/><path class="st1" d="M31.1 93.4l.5-.4-.6-.9-.6.3zM32.2 95l.6-.4-.7-.9-.5.4zM33.5 96.5l.5-.4s-.2-.2-.3-.4c-.2-.2-.3-.4-.3-.4l-.5.4.4.4c0 .2.2.4.2.4"/><path class="st1" d="M28 88.2l.6-.3-.5-1-.6.3zM28.9 90l.6-.4-.5-.9-.6.3zM30 91.7l.5-.4-.5-.9-.6.3zM25.7 82.7l.6-.2s-.1-.3-.2-.5c-.1-.3-.1-.6-.1-.6l-.6.2s.1.3.2.5c0 .3.1.6.1.6M26.4 84.6l.6-.2s-.1-.3-.2-.5l-.2-.5-.6.1s.1.3.2.5l.2.6M27.1 86.4l.6-.3s-.1-.2-.2-.5-.2-.5-.2-.5l-.6.3s.1.3.2.5.2.5.2.5"/><path class="st1" d="M24.1 76.9l.6-.1-.2-1.1-.6.1zM24.5 78.9l.7-.2-.3-1.1-.6.2zM25.1 80.8l.6-.2-.3-1.1-.7.2zM23.3 71h.7v-1h-.7v1"/><path class="st1" d="M23.5 73l.6-.1-.1-1.1-.6.1zM23.7 74.9l.7-.1-.2-1h-.6zM23.3 65h.7v-.5c0-.3.1-.5.1-.5l-.7-.1s0 .3-.1.6v.5M23.2 67h.7v-1h-.7v1M23.2 69h.7v-1h-.7v1"/><path class="st1" d="M24.1 59.1l.6.1.3-1.1-.7-.1zM23.7 61l.7.1s0-.3.1-.5c0-.3.1-.5.1-.5l-.7-.1s0 .3-.1.5c0 .3-.1.5-.1.5M23.5 63l.7.1s0-.3.1-.5c0-.3.1-.5.1-.5l-.7-.1s0 .3-.1.6c-.1.1-.1.4-.1.4"/><path class="st1" d="M25.7 53.3l.6.2.4-1-.7-.3zM25.1 55.2l.6.2.3-1.1-.6-.2zM24.5 57.1l.7.2.3-1.1-.7-.2zM28 47.8l.6.3.5-1-.6-.3zM27.1 49.6l.7.2.4-.9-.6-.3zM26.4 51.4l.6.3.4-1.1-.6-.2zM31.1 42.6l.6.4s.1-.2.3-.5c.2-.2.3-.4.3-.4l-.5-.4s-.2.2-.3.4c-.3.3-.4.5-.4.5M30 44.3l.6.4s.1-.2.3-.5c.2-.2.3-.5.3-.5l-.6-.4s-.2.2-.3.5c-.2.2-.3.5-.3.5M28.9 46l.6.3s.1-.2.3-.5c.1-.2.3-.5.3-.5l-.6-.3s-.1.2-.3.5c-.1.3-.3.5-.3.5M34.8 37.9l.5.4.4-.4.3-.3.1-.1-.5-.5-.1.1-.3.3c-.3.3-.4.5-.4.5M33.5 39.4l.5.4s.2-.2.3-.4c.1-.1.2-.2.2-.3l.1-.1-.5-.4s0 .1-.1.1c-.1.1-.2.2-.2.3-.2.2-.3.4-.3.4M32.2 41l.5.4s.2-.2.3-.4c.2-.2.3-.4.3-.4l-.5-.4s-.2.2-.3.4c-.1.2-.3.4-.3.4"/><path class="st1" d="M39.1 33.8l.4.5.8-.7-.4-.6zM37.6 35.1l.4.5.8-.8-.4-.5zM36.1 36.5l.5.4.8-.8-.5-.4zM43.9 30.2l.3.6 1-.6-.4-.6zM42.2 31.3l.4.6.9-.7-.4-.5zM40.6 32.5l.4.5.9-.6-.4-.6zM49.1 27.3l.3.6s.2-.1.5-.2l.3-.2c.1 0 .2-.1.2-.1l-.3-.6s-.1 0-.2.1c-.1 0-.2.1-.3.2-.2.1-.5.2-.5.2M47.3 28.2l.3.6s.2-.1.5-.3c.2-.1.5-.2.5-.2l-.3-.6s-.3.1-.5.2c-.2.2-.5.3-.5.3M45.6 29.2l.3.6s.1 0 .1-.1c.1 0 .2-.1.3-.2.2-.1.5-.3.5-.3l-.3-.6s-.2.1-.5.3l-.3.2-.1.1"/><path class="st1" d="M54.7 25.2l.2.6 1.1-.3-.2-.6zM52.8 25.8l.3.6 1-.3-.2-.7zM51 26.5l.3.6s.3-.1.5-.2c.3-.1.5-.2.5-.2l-.3-.6s-.3.1-.5.2c-.3.1-.5.2-.5.2M60.6 23.8l.1.7h.2c.1 0 .2 0 .4-.1.3 0 .5-.1.5-.1l-.1-.7s-.3 0-.6.1c-.1 0-.3 0-.4.1h-.1"/><path class="st1" d="M58.6 24.1l.1.7 1.1-.2-.1-.7zM56.7 24.6l.1.7 1.1-.3-.2-.6zM66.5 23.2v.7h1v-.7h-1M64.5 23.3l.1.7h1v-.7h-1.1M62.5 23.5l.1.7h1.1l-.1-.7s-.3 0-.6.1h-.4c0-.1-.1-.1-.1-.1"/><path class="st1" d="M72.5 23.4l-.1.6 1.1.2.1-.7zM70.5 23.2v.7l1.1.1v-.7zM68.5 23.2v.7h1.1v-.7h-1.1"/><path class="st1" d="M78.4 24.4l-.2.6 1.1.3.2-.7zM76.5 24l-.2.6 1.1.2.1-.6zM74.5 23.6l-.1.7 1.1.2.1-.7zM84.1 26.1l-.2.6s.1 0 .2.1l.3.1c.3.1.5.2.5.2l.3-.6s-.3-.1-.5-.2c-.1-.1-.3-.1-.4-.1-.1 0-.2-.1-.2-.1"/><path class="st1" d="M82.2 25.5l-.2.6 1.1.4.2-.7zM80.3 24.9l-.1.6 1 .3.2-.6zM89.6 28.7l-.3.6s.2.1.5.3c.2.1.5.3.5.3l.3-.6s-.2-.1-.5-.3c-.3-.2-.5-.3-.5-.3M87.8 27.8l-.3.6s.3.1.5.2.5.3.5.3l.3-.6s-.2-.1-.5-.3c-.3-.1-.5-.2-.5-.2M86 26.9l-.3.6s.3.1.5.2.5.2.5.2l.3-.6s-.3-.1-.5-.2c-.3-.1-.5-.2-.5-.2"/><path class="st1" d="M94.6 31.9l-.4.5.9.7.4-.5zM93 30.7l-.4.6s.2.2.5.3c.1.1.2.2.3.2l.1.1.4-.5s-.1 0-.1-.1l-.3-.2c-.3-.2-.5-.4-.5-.4M91.3 29.7l-.3.6s.2.1.5.3l.3.2.1.1.4-.6s-.1 0-.1-.1c-.2-.1-.3-.2-.4-.2-.3-.2-.5-.3-.5-.3"/><path class="st1" d="M99.2 35.8l-.5.4.8.8.5-.5zM97.7 34.4l-.4.5.8.7.4-.5zM96.2 33.1l-.4.5.8.7.5-.5zM103.2 40.2l-.5.4.6.9.6-.4zM101.9 38.7l-.5.4.7.8.5-.4zM100.6 37.2l-.5.4.8.8.4-.4zM106.6 45.1l-.6.3s.1.2.3.5c.1.2.3.5.3.5l.6-.3s-.1-.2-.3-.5l-.3-.5M105.5 43.4l-.6.4s.2.2.3.5c.1.2.3.5.3.5l.6-.3s-.1-.2-.3-.5c-.1-.3-.3-.6-.3-.6M104.4 41.8l-.5.4s.2.2.3.4c.2.2.3.5.3.5l.6-.4s-.2-.2-.3-.5l-.4-.4"/><path class="st1" d="M109.3 50.5l-.6.2.4 1.1.6-.3zM108.5 48.7l-.6.2.4 1 .6-.2zM107.6 46.9l-.6.3s.1.2.3.5l.2.3c0 .1.1.2.1.2l.6-.3s0-.1-.1-.2c0-.1-.1-.2-.2-.3-.2-.3-.3-.5-.3-.5"/><path class="st0" d="M131.1 43.8l-.4.2c6.6 17.3 5.6 35.6-1.3 51.3-7 15.7-19.9 28.7-37.2 35.3-17.3 6.6-35.6 5.6-51.3-1.3-15.9-7-28.9-20-35.5-37.3-6.6-17.3-5.6-35.6 1.3-51.3 7-15.7 20-28.7 37.3-35.3 17.3-6.6 35.6-5.6 51.3 1.3 15.7 7 28.7 19.9 35.3 37.2l.5-.1.4-.2c-13.5-35-52.8-52.5-87.8-39.1-35.1 13.5-52.6 52.8-39.1 87.8s52.8 52.5 87.8 39.1c35-13.5 52.5-52.8 39.1-87.8l-.4.2zM123.5 52.1c.4 1.1-.1 2.2-1.2 2.6-1.1.4-2.2-.1-2.6-1.2-.4-1.1.1-2.2 1.2-2.6 1-.4 2.2.1 2.6 1.2M19.2 92.1c.4 1.1-.1 2.2-1.2 2.6-1.1.4-2.2-.1-2.6-1.2-.4-1.1.1-2.2 1.2-2.6 1-.4 2.2.1 2.6 1.2M18 77.9c.4 1.6-.4 2.9-2.1 3.3l-4.3 1-.2-1 4.3-1c1.3-.3 1.7-1.3 1.5-2.2-.2-.9-.9-1.7-2.3-1.4l-4.3 1-.2-.9 4.3-1c1.6-.2 3 .7 3.3 2.2"/><path class="st0" d="M16.5 67.8l-4.9 4.1c-.1 0-.2.1-.2.1h.2l5.1-.4.1 1-7.1.5-.1-.8 4.8-4c.1-.1.2-.1.2-.1h-.2l-5 .4-.1-1 7.1-.5.1.7zM16.5 64.4l-7.1-.5.1-1 6.2.4.2-2.7.9.1zM17.8 55.7c-.4 2-2.3 3.3-4.4 2.8-2-.4-3.3-2.3-2.8-4.3.5-2.2 2.3-3.3 4.4-2.8 1.9.4 3.2 2.3 2.8 4.3m-6.3-1.3c-.3 1.5.6 2.8 2.1 3.1 1.6.3 2.9-.6 3.2-2 .3-1.4-.5-2.8-2.2-3.1-1.5-.4-2.8.5-3.1 2M20.5 47c-.6 1.6-2.6 2.7-4.7 1.9-1.9-.8-2.9-2.8-2.1-4.7.5-1.2 1.2-1.7 2-2l.3.8c-.7.3-1.2.7-1.5 1.5-.5 1.3.1 2.8 1.6 3.4 1.7.7 3.1-.3 3.5-1.3.3-.6.3-1.5-.1-2.3l.8-.4c.5.7.6 1.9.2 3.1"/><path class="st0" d="M24.6 38.7l-4.3.7.2.5 2.5 1.5-.5.8-6.2-3.6.5-.8 2.6 1.5-1.1-3.9.6-1.1 1.2 4.2 5.2-.9zM20.888 31.623l.603-.798 5.664 4.281-.603.798zM32.2 29.5l-6.3-.9h-.2s.1.1.2.1l3.7 3.6-.7.7-5.2-5 .6-.6 6.2.9c.1 0 .2.1.2.1s-.1-.1-.2-.1l-3.6-3.5.7-.7 5.1 4.9-.5.5zM37.4 25.2c-1.5 1.1-3.8 1-5.1-.8-1.3-1.8-.9-4 .7-5.1.9-.7 1.8-.9 2.7-.8v.9c-.8 0-1.4.1-2.1.6-1.2.9-1.4 2.4-.4 3.7.9 1.2 2.6 1.5 3.7.6.8-.6 1.1-1.6.8-2.4l-1.7 1.4-.5-.7 2.6-1.9c1.1 1.5.7 3.5-.7 4.5"/><path class="st0" d="M43.7 14.2l2.6 5.7-.8.4-2.7-5.6-1.3.6-.4-.9 3.6-1.6.4.8zM54.1 17.1l-.9-3-3.3 1 .9 3-.9.3-2.1-6.9.9-.3.9 3.1 3.3-1-.9-3.1.9-.2 2.1 6.8zM57.7 16.2l-1.2-7 4-.7.1 1-3 .4.4 2.3 2.9-.5.1.9-2.9.5.4 2.1 3.1-.5.2.9zM69.5 12.5h-1.3l-.2 2.8h-1l.2-7.1 2.1.1c1.4 0 2.3 1 2.3 2.3 0 1-1 2-2.1 1.9m-.3-3.4h-1l-.1 2.5h1.1c.8 0 1.4-.4 1.4-1.2.1-.8-.5-1.3-1.4-1.3M77.1 16.3c-2-.4-3.3-2.2-2.9-4.3.4-2 2.2-3.3 4.2-2.9 2.2.4 3.3 2.3 2.9 4.3-.3 2-2.2 3.3-4.2 2.9m1.2-6.3c-1.5-.3-2.8.6-3.1 2.2-.3 1.6.7 2.9 2.1 3.2 1.4.3 2.8-.5 3.1-2.2.3-1.6-.6-2.9-2.1-3.2"/><path class="st0" d="M86.5 12.3l-2 5.9-1-.3 2.1-5.9-1.4-.5.3-.8 3.7 1.3-.3.8zM88.1 19.6l3.1-6.4 3.6 1.8-.4.8-2.7-1.3-1 2 2.6 1.3-.4.8-2.6-1.3-.9 1.9 2.8 1.4-.4.8zM97.9 25.4l-.1-6.4v-.2s-.1.1-.1.2l-2.9 4.2-.8-.6 4-5.9.7.5.2 6.3v.2s.1-.1.1-.2l2.9-4.2.8.6-4 5.9-.8-.4zM106.4 24.3l-4.2 4.6-.8-.6 4.2-4.6-1-1 .6-.7 2.9 2.7-.6.7zM104.908 31.74l5.262-4.766.671.741-5.262 4.766zM110 38.2l1.4-2-1.3-1.8-2.4.6-.6-.8 7.4-1.9.4.5-4.2 6.4-.7-1zm3.2-4.6c0-.1.1-.2.1-.2s-.1 0-.1.2l-2.2.4.9 1.3 1.3-1.7zM111.7 41l6.4-3.3.4.8-5.5 2.9 1.3 2.4-.8.4zM25.5 108.7c-1.3-1.6-1.1-3.8.5-5.2 1.6-1.3 3.8-1.2 5.1.4 1.4 1.7 1.1 3.9-.5 5.2-1.5 1.4-3.8 1.1-5.1-.4m4.9-4.1c-1-1.2-2.5-1.3-3.7-.3-1.2 1-1.3 2.7-.4 3.8.9 1.1 2.5 1.3 3.8.2 1.1-1 1.3-2.5.3-3.7"/><path class="st0" d="M34.8 109.3l-1.5 1.7 1.8 1.6-.6.7-1.8-1.6-2 2.3-.7-.7 4.7-5.3 2.6 2.3-.6.7zM40.7 121.3l.5-2.4-1.9-1.2-1.9 1.5-.9-.5 6.1-4.7.5.3-1.4 7.5-1-.5zm1.1-5.5c0-.1.1-.2.1-.2s-.1.1-.1.2l-1.8 1.3 1.4.8.4-2.1zM49.6 125.4l2-4.9c0-.1.1-.2.1-.2s-.1.1-.2.1l-3.2 2-.4-.1-1-3.6v-.2s0 .1-.1.3l-1.9 4.8-.9-.4 2.7-6.6.8.3 1.2 4.2 3.7-2.3.8.3-2.7 6.6-.9-.3zM53.5 126.6l1.6-7 3.9 1-.2.8-2.9-.7-.6 2.3 2.9.6-.2.9-2.9-.6-.5 2 3.1.7-.2.9zM64 128.4l-2.5-3.6-.4 3.3-1-.1.8-7.1 2.3.3c1.3.1 2.1 1.2 2 2.3-.1 1.1-1.2 1.9-2.2 1.8l2.3 3.3-1.3-.2zm-1-6.3l-1.1-.1-.3 2.4 1.1.1c.9.1 1.4-.4 1.5-1.2.1-.4-.3-1.1-1.2-1.2"/><path class="st0" d="M67.461 128.573l.092-7.099 1 .013-.092 7.099zM74.6 128.4c-1.7.2-3.6-1.1-3.8-3.3-.2-2.1 1.1-3.8 3.2-4 1.3-.1 2.1.2 2.7.9l-.7.7c-.5-.5-1.2-.7-2-.6-1.4.1-2.4 1.3-2.3 2.9.2 1.8 1.7 2.6 2.7 2.5.7-.1 1.4-.4 2-1.2l.8.5c-.4.8-1.4 1.5-2.6 1.6"/><path class="st0" d="M84.3 126.5l-1.4-2-2.2.5-.3 2.4-1 .2 1-7.6h.6l4.4 6.3-1.1.2zm-3.1-4.6c0-.1-.1-.2-.1-.2v.2l-.2 2.1 1.5-.4-1.2-1.7zM92.3 123.6l-5.4-3.4c-.1 0-.2-.1-.2-.1s.1.1.1.2l1.9 4.8-.9.4-2.7-6.6.8-.3 5.3 3.3c.1.1.2.1.2.1s-.1-.1-.1-.2l-1.9-4.7.9-.4 2.7 6.6-.7.3zM97.9 120.7l-3.7-6 3.3-2.1.5.7-2.5 1.6 1.2 2 2.5-1.6.5.8-2.5 1.5 1.1 1.8 2.7-1.7.5.8zM105.1 115.8l-1.3 1.1-4.5-5.5 1.4-1.2c1.9-1.5 4-1.2 5.2.3 1.1 1.6 1 3.8-.8 5.3m-4-4.8l-.6.5 3.4 4.2.5-.4c1.6-1.3 1.4-3 .6-4-.9-1.2-2.5-1.4-3.9-.3M112 109.5c-1.1 1.2-2.6 1.4-4 .2l-3.3-3 .7-.7 3.3 3c1 .9 2 .6 2.6-.1.6-.7.8-1.7-.2-2.6l-3.3-3 .6-.7 3.3 3c1.3 1.1 1.3 2.7.3 3.9M117.5 102.3c-1 1.4-3.1 2.1-5 .9-1.7-1.1-2.3-3.3-1.1-5 .7-1.1 1.5-1.5 2.4-1.6l.1 1c-.7.1-1.3.5-1.7 1.1-.8 1.2-.5 2.7.9 3.6 1.5 1 3.1.3 3.7-.6.4-.6.6-1.4.3-2.3l.9-.2c.3.9.2 2.1-.5 3.1"/><path class="st0" d="M122.1 93.6l-2.5-.2-1 2.1 1.7 1.8-.4.9-5.3-5.5.3-.6 7.6.6-.4.9zm-5.5-.5h-.2s0 .1.2 0l1.4 1.6.7-1.4-2.1-.2zM117.9 87.1l5.9 2-.3.9-5.9-2-.5 1.4-.9-.3 1.3-3.8.9.3zM117.974 83.558l.243-.97 6.887 1.725-.243.97zM126.4 78.2c-.3 2-2 3.4-4.1 3.2-2.1-.3-3.4-2-3.2-4 .3-2.2 2.1-3.5 4.1-3.2 2.1.2 3.4 2 3.2 4m-6.4-.8c-.2 1.5.8 2.7 2.4 2.9 1.6.2 2.9-.9 3.1-2.3.2-1.4-.7-2.7-2.4-2.9-1.6-.2-2.9.8-3.1 2.3"/><path class="st0" d="M126.6 66.9l-5 3.9c-.1 0-.2.1-.2.1h.2l5.1-.2v1l-7.1.3v-.8l4.9-3.9c.1-.1.2-.1.2-.1h-.2l-5 .2v-1l7.1-.3v.8zM69.1 95.9l2-.8.8-17.4.4-.1 12.5 12.3 2.6-1 .1.2-7.4 2.8-.1-.2 2.1-.8-3.8-3.8-6.6 2.5-.3 5.4 2-.8.1.2-4.4 1.7v-.2zm9-9l-6.1-6-.4 8.5 6.5-2.5zM75.3 62.1c.2-.4.3-.8.6-1.3l13.4 7.4c.7-1 1.6-1.6 3.1-1.1l.1-.7 2.7-9 1.3-4.4c.1-.5.3-.7.8-.5l.6.1c.3 0 .4.2.3.5l-2.9 9.3-1.3 4.2c-.1.3-.2.7-.2 1.1-.1.7-.5 1.3-1.1 1.6-.8.5-1.8 1-2.8.8-.4 0-.7-.3-1-.4-1-.7-1.9-1.3-2.9-1.8l-7.5-4.2-3.2-1.6M77 60.5c.7-.8.4-.6 1.2-.2 3.1 1.7 8.6 5.4 8.6 5.5-3.3-2.3-6.1-3.6-9.8-5.3M87.4 63.8c-2.6-2.9-4-3.9-7.1-6.2.4-.9.3-.6 1.2.1 1.7 1.6 3.2 2.9 4.8 4.6.7.7 1.1 1.4 1.1 1.5M79.1 58.5c.5-.9.4-.7 1.1-.1 2.6 2 6.8 5.9 6.8 6.1-2.9-2.9-4.5-3.9-7.9-6M86.5 64.9c-3-2.4-4.9-3.6-8.4-5.4.2-.2.3-.5.4-.6.1-.1.3 0 .4.1 1.9 1.5 7.7 5.9 7.6 5.9M83.4 33.1s-.5 1.1-1.3 3c-.4 1-.9 2.1-1.4 3.5l-.9 2.1c-.3.7-.7 1.5-1 2.3-2.9 6.5-6.8 15.2-10.6 23.9-3.9 8.7-7.7 17.4-10.6 23.9-.4.8-.7 1.6-1 2.3l-1 2.1c-.6 1.3-1.2 2.4-1.6 3.4-.9 1.9-1.4 3-1.4 3s.5-1.1 1.3-3c.4-1 .9-2.1 1.4-3.5l.9-2.1c.3-.7.7-1.5 1-2.3 2.9-6.5 6.8-15.2 10.6-23.9 3.9-8.7 7.7-17.4 10.6-23.9.4-.8.7-1.6 1-2.3l1-2.1c.6-1.3 1.2-2.4 1.6-3.4.9-1.9 1.4-3 1.4-3M102.7 83.3s-1.1-.5-3-1.3c-1-.4-2.1-.9-3.5-1.4l-2.1-.9c-.7-.3-1.5-.7-2.3-1-6.5-2.9-15.2-6.8-23.9-10.6-8.7-3.9-17.4-7.7-23.9-10.6-.8-.4-1.6-.7-2.3-1l-2.1-1c-1.3-.6-2.4-1.2-3.4-1.6-1.9-.9-3-1.4-3-1.4s1.1.5 3 1.3c1 .4 2.1.9 3.5 1.4l2.1.9c.7.3 1.5.7 2.3 1 6.5 2.9 15.2 6.8 23.9 10.6 8.7 3.9 17.4 7.7 23.9 10.6.8.4 1.6.7 2.3 1l2.1 1c1.3.6 2.4 1.2 3.4 1.6 1.9.9 3 1.4 3 1.4"/><path class="st0" d="M83.3 33.7l-2.6 10.3-4.1 4.7zM33.6 52.7l8.8 6 6.4.9zM95.9 53.2c-1.1-.2-.7-.2-1 .7-1.2 3.4-2.9 9.8-2.8 9.9.9-3.9 2.1-6.8 3.8-10.6M90.2 62.7c0-3.9.4-5.6 1.2-9.4-.9-.4-.7-.2-.8.9-.2 2.4-.5 4.3-.5 6.6-.1 1 0 1.9.1 1.9M92.9 53.2c-1-.3-.7-.3-.9.6-.6 3.2-1.2 8.9-1.1 9.1.3-4.1.9-5.8 2-9.7M91.7 63c.6-3.9 1.3-6 2.8-9.7-.3-.1-.5-.2-.7-.1-.2 0-.2.2-.2.4-.6 2.2-2 9.4-1.9 9.4"/></svg>